<svg width="5" height="8" viewBox="0 0 5 8" fill="none" xmlns="http://www.w3.org/2000/svg">
<path d="M4.76871 4.31271C4.76931 4.40968 4.74928 4.50582 4.70975 4.59559C4.67023 4.68537 4.61199 4.76702 4.53838 4.83588L1.36141 7.7833C1.21185 7.92205 1.009 8 0.797493 8C0.585984 8 0.383139 7.92205 0.23358 7.7833C0.084021 7.64454 -2.61712e-08 7.45636 -3.56176e-08 7.26013C-4.50639e-08 7.0639 0.084021 6.87572 0.23358 6.73696L2.85458 4.31271L0.241522 1.88846C0.111404 1.74749 0.0434119 1.56617 0.0511328 1.38072C0.0588538 1.19527 0.141719 1.01936 0.28317 0.888128C0.42462 0.756898 0.614237 0.680021 0.814129 0.672858C1.01402 0.665695 1.20947 0.728774 1.36141 0.84949L4.53838 3.79691C4.68511 3.93416 4.76783 4.1194 4.76871 4.31271Z" fill="#263238"/>
</svg>
